<svg width="1040" height="1039" xmlns="http://www.w3.org/2000/svg" xmlns:xlink="http://www.w3.org/1999/xlink" xml:space="preserve" overflow="hidden"><g transform="translate(-1046 -676)"><rect x="1046" y="1146" width="1040" height="78"/><rect x="1529" y="676" width="78" height="1039"/><path d="M1957.42 1189.91C1957.42 1406.4 1781.98 1581.91 1565.42 1581.91 1348.93 1581.91 1173.42 1406.4 1173.42 1189.91 1173.42 973.405 1348.93 797.909 1565.42 797.909 1781.98 797.909 1957.42 973.405 1957.42 1189.91" stroke="#000000" stroke-width="53.8542" stroke-linecap="round" stroke-linejoin="round" stroke-miterlimit="10" fill="#CAC2CF" fill-rule="evenodd"/><path d="M1208.34 1420C1133.26 1258.97 1151.21 1091.68 1248.44 1046.34 1345.68 1001 1485.37 1094.78 1560.46 1255.81 1635.55 1416.84 1617.6 1584.13 1520.36 1629.47 1423.13 1674.81 1283.43 1581.03 1208.34 1420Z" stroke="#000000" stroke-width="36.6667" stroke-linecap="round" stroke-linejoin="round" stroke-miterlimit="10" fill="#937F91" fill-rule="evenodd"/><path d="M1333.78 1199.63 1473.23 1498.68" stroke="#4E414C" stroke-width="22.9167" stroke-linecap="round" stroke-linejoin="round" stroke-miterlimit="10" fill="none" fill-rule="evenodd"/><path d="M1353.41 1241.05 1278.65 1275.91" stroke="#4E414C" stroke-width="22.9167" stroke-linecap="round" stroke-linejoin="round" stroke-miterlimit="10" fill="none" fill-rule="evenodd"/><path d="M1454.12 1457.02 1379.35 1491.88" stroke="#4E414C" stroke-width="22.9167" stroke-linecap="round" stroke-linejoin="round" stroke-miterlimit="10" fill="none" fill-rule="evenodd"/><path d="M1478.52 1314.18 1403.76 1349.04" stroke="#4E414C" stroke-width="22.9167" stroke-linecap="round" stroke-linejoin="round" stroke-miterlimit="10" fill="none" fill-rule="evenodd"/><path d="M0 321.71C-2.47317e-14 144.034 86.9725-4.09579e-14 194.258-8.19159e-14 301.544-1.63832e-13 388.517 144.034 388.517 321.71 388.517 499.385 301.544 643.42 194.258 643.42 86.9725 643.42-1.23658e-13 499.385 0 321.71Z" stroke="#000000" stroke-width="36.6667" stroke-linecap="round" stroke-linejoin="round" stroke-miterlimit="10" fill="#937F91" fill-rule="evenodd" transform="matrix(-0.422618 0.906308 0.906308 0.422618 1492.03 708.789)"/><path d="M0 0 0.000360892 329.959" stroke="#4E414C" stroke-width="22.9167" stroke-linecap="round" stroke-linejoin="round" stroke-miterlimit="10" fill="none" fill-rule="evenodd" transform="matrix(-0.422618 0.906308 0.906308 0.422618 1563.23 970.189)"/><path d="M0 0 0.000360892 82.4899" stroke="#4E414C" stroke-width="22.9167" stroke-linecap="round" stroke-linejoin="round" stroke-miterlimit="10" fill="none" fill-rule="evenodd" transform="matrix(0.906308 0.422618 0.422618 -0.906308 1604.64 989.812)"/><path d="M0 0 0.000360892 82.4899" stroke="#4E414C" stroke-width="22.9167" stroke-linecap="round" stroke-linejoin="round" stroke-miterlimit="10" fill="none" fill-rule="evenodd" transform="matrix(0.906308 0.422618 0.422618 -0.906308 1820.62 1090.52)"/><path d="M0 0 0.000360892 82.4899" stroke="#4E414C" stroke-width="22.9167" stroke-linecap="round" stroke-linejoin="round" stroke-miterlimit="10" fill="none" fill-rule="evenodd" transform="matrix(0.906308 0.422618 0.422618 -0.906308 1677.77 1114.93)"/><path d="M1337.31 968.406 1827.27 1458.37" stroke="#000000" stroke-width="55" stroke-linecap="round" stroke-linejoin="round" stroke-miterlimit="10" fill="none" fill-rule="evenodd"/><path d="M1196.4 1116.56C1159.27 1079.43 1195.51 983.003 1277.33 901.179 1359.15 819.355 1455.58 783.122 1492.71 820.25 1529.84 857.379 1493.61 953.81 1411.78 1035.63 1329.96 1117.46 1233.53 1153.69 1196.4 1116.56Z" stroke="#000000" stroke-width="36.6667" stroke-linecap="round" stroke-linejoin="round" stroke-miterlimit="10" fill="#CAC2CF" fill-rule="evenodd"/></g></svg>